<?xml version="1.0" standalone="no"?>
<!DOCTYPE svg PUBLIC "-//W3C//DTD SVG 20010904//EN"
 "http://www.w3.org/TR/2001/REC-SVG-20010904/DTD/svg10.dtd">
<svg version="1.0" xmlns="http://www.w3.org/2000/svg"
 width="1200.000000pt" height="563.000000pt" viewBox="0 0 1200.000000 563.000000"
 preserveAspectRatio="xMidYMid meet">

<g transform="translate(0.000000,563.000000) scale(0.100000,-0.100000)"
fill="#000000" stroke="none">
<path d="M0 5354 l0 -276 38 23 c212 127 347 277 416 462 l26 67 -240 0 -240
0 0 -276z"/>
<path d="M620 5533 c-52 -218 -144 -462 -264 -705 l-73 -146 81 -13 c102 -17
304 -17 376 0 193 45 356 121 488 227 130 104 262 273 323 413 l21 51 5079 0
5079 0 0 -267 0 -268 135 3 135 3 0 400 0 399 -5678 0 -5678 0 -24 -97z m521
-147 c93 -39 145 -163 106 -252 -18 -43 -48 -84 -60 -84 -5 0 -3 8 5 18 70 79
61 219 -17 280 -15 12 -50 26 -78 32 -46 11 -58 9 -106 -9 -67 -25 -81 -19
-20 9 52 23 123 26 170 6z m7 -69 c80 -74 66 -195 -28 -244 -24 -13 -55 -23
-70 -23 -43 0 -111 42 -131 80 -47 87 2 198 96 218 49 10 102 -2 133 -31z"/>
<path d="M5610 4960 c118 -3 209 -7 202 -8 -10 -1 -12 -32 -11 -127 1 -85 4
-123 12 -118 6 4 7 1 3 -6 -5 -7 -15 -10 -23 -7 -8 3 -11 2 -8 -4 8 -14 -30
-31 -43 -20 -9 7 -9 7 -2 -2 6 -7 -3 -25 -30 -55 -21 -24 -49 -69 -61 -98
l-23 -55 -345 -3 -346 -2 350 -3 351 -2 13 38 c67 192 281 290 460 211 51 -22
55 -23 45 -7 -4 7 -3 8 5 4 6 -4 9 -11 6 -15 -2 -5 15 -23 38 -41 l42 -33 -35
39 -35 39 43 -40 c41 -38 53 -53 32 -40 -5 3 -10 2 -10 -3 0 -13 25 -33 32
-26 3 3 5 -1 5 -8 -1 -7 7 -37 18 -65 l20 -53 396 0 c373 0 397 1 394 18 -2 9
-4 126 -4 260 l-1 242 -852 -2 c-469 -1 -756 -5 -638 -8z m269 -7 c-1 -5 -1
-54 0 -109 l1 -102 68 4 67 3 -66 -9 c-37 -4 -77 -13 -89 -20 -12 -6 -24 -9
-28 -6 -3 3 -1 6 4 6 5 0 8 19 7 43 -11 186 -10 197 14 197 13 0 22 -3 22 -7z
m54 0 c-7 -2 -21 -2 -30 0 -10 3 -4 5 12 5 17 0 24 -2 18 -5z"/>
<path d="M201 4538 c-30 -51 -87 -144 -128 -206 l-73 -113 0 -2110 0 -2109
968 0 967 0 -60 29 c-75 36 -147 107 -183 180 -24 51 -27 66 -27 166 0 106 1
112 34 173 63 116 170 191 300 208 73 9 64 -10 -10 -24 -124 -23 -226 -100
-277 -210 -22 -48 -26 -72 -26 -147 -1 -82 2 -96 31 -156 57 -115 157 -187
293 -208 40 -7 313 -11 721 -11 l656 0 114 54 c107 50 382 170 494 215 l50 20
-134 0 -134 1 -111 113 c-187 190 -350 308 -577 421 -203 101 -472 179 -691
202 l-68 6 0 54 0 54 -32 0 c-46 1 -109 31 -141 69 -55 66 -57 87 -57 658 l0
523 193 0 192 0 1 -377 c1 -278 4 -399 15 -458 l14 -80 59 -8 c32 -5 60 -6 63
-3 6 6 41 312 73 641 28 289 27 285 50 285 15 0 20 -9 24 -42 42 -353 95 -624
158 -817 l20 -63 46 6 c26 3 50 10 55 15 19 19 -22 760 -58 1071 -8 69 -15
130 -15 136 0 7 -24 24 -54 38 -30 15 -59 33 -65 40 -17 21 -4 59 36 106 35
40 35 41 23 86 -7 24 -16 47 -20 49 -4 2 -41 -3 -81 -11 -71 -15 -230 -15
-271 1 -9 4 -18 0 -21 -8 -3 -8 -14 -126 -23 -261 l-18 -246 -607 0 c-668 0
-633 3 -627 -62 l3 -33 358 -3 357 -2 0 -515 c0 -328 -4 -532 -11 -564 -20
-96 -102 -170 -186 -171 -28 0 -33 -4 -33 -24 0 -18 13 -34 45 -57 48 -34 50
-49 7 -49 -34 0 -217 -41 -305 -69 -132 -41 -275 -103 -417 -181 -292 -162
-526 -226 -744 -205 l-76 7 -2 2034 -3 2034 -54 -92z m2568 -2015 c0 -18 -3
-33 -9 -33 -6 0 -9 27 -9 63 1 49 3 56 9 32 4 -16 8 -45 9 -62z m-616 -1889
c25 -8 66 -33 91 -55 133 -117 133 -321 0 -438 -108 -95 -270 -95 -378 0 -99
87 -129 227 -72 343 32 64 100 129 159 150 56 19 143 20 200 0z"/>
<path d="M5970 4567 c0 -1 -1 -89 -3 -195 -1 -125 2 -192 8 -192 6 0 45 20 88
45 l78 46 -3 101 -3 102 -82 48 c-46 26 -83 46 -83 45z"/>
<path d="M5918 4534 c-38 -20 -36 -28 2 -9 17 9 30 18 30 20 0 7 -1 6 -32 -11z"/>
<path d="M5854 4494 c-18 -14 -18 -15 4 -4 12 6 22 13 22 15 0 8 -5 6 -26 -11z"/>
<path d="M4858 4453 c6 -2 18 -2 25 0 6 3 1 5 -13 5 -14 0 -19 -2 -12 -5z"/>
<path d="M2593 4271 c-33 -21 -73 -86 -73 -118 0 -10 -13 -46 -30 -81 -26 -55
-29 -70 -23 -121 4 -46 2 -64 -11 -82 -31 -45 -15 -98 33 -114 11 -3 22 -13
25 -21 5 -14 11 -13 40 5 19 12 38 20 43 19 4 -1 18 3 31 10 18 10 21 18 16
40 -9 38 -22 51 -44 45 -12 -3 -28 5 -44 21 -23 22 -26 33 -26 93 0 97 16 179
41 214 l21 31 19 -42 c15 -33 29 -45 74 -66 l55 -25 -6 -55 c-6 -47 -4 -60 15
-84 16 -22 21 -44 21 -89 0 -33 4 -62 9 -65 5 -3 9 -24 9 -46 1 -29 -3 -40
-14 -40 -24 0 -12 -33 16 -48 15 -8 46 -11 79 -9 65 5 85 25 77 78 -5 31 -2
38 24 58 38 27 38 47 0 93 l-30 37 20 33 c11 18 20 38 20 43 0 6 -27 41 -60
78 -36 41 -60 77 -60 91 0 32 -39 86 -78 109 -50 29 -149 34 -189 8z"/>
<path d="M5840 4256 c0 -3 9 -10 20 -16 11 -6 20 -8 20 -6 0 3 -9 10 -20 16
-11 6 -20 8 -20 6z"/>
<path d="M5910 4216 c0 -3 9 -10 20 -16 11 -6 20 -8 20 -6 0 3 -9 10 -20 16
-11 6 -20 8 -20 6z"/>
<path d="M1084 3722 c-58 -27 -86 -67 -83 -117 3 -67 0 -74 -40 -99 -49 -31
-56 -53 -35 -105 15 -39 15 -41 -5 -70 -28 -38 -26 -62 4 -91 14 -13 25 -33
25 -45 0 -28 17 -48 60 -74 48 -29 60 -27 60 9 0 17 9 43 20 58 11 16 22 52
26 87 4 33 16 76 27 95 15 24 21 52 22 93 l0 58 70 24 c52 17 78 33 102 60
l32 37 5 -34 c4 -18 7 -60 9 -93 l2 -60 19 39 c15 33 16 46 6 84 -16 66 -46
101 -108 130 -74 33 -163 39 -218 14z"/>
<path d="M5082 3413 l2 -148 3 143 4 142 144 0 144 0 4 -142 3 -143 2 148 2
147 -155 0 -155 0 2 -147z"/>
<path d="M5212 3468 c-7 -7 -12 -19 -11 -27 0 -10 4 -7 9 7 11 27 26 28 54 5
21 -18 21 -18 2 5 -21 25 -36 28 -54 10z"/>
<path d="M1378 3443 c-3 -4 -11 -36 -18 -70 -7 -34 -21 -76 -32 -94 -18 -30
-22 -31 -69 -27 l-51 5 7 -36 c8 -44 12 -51 31 -51 8 0 14 -6 14 -13 0 -8 9
-22 20 -32 19 -17 20 -17 35 19 11 26 26 42 50 52 19 8 38 22 43 31 15 31 7
192 -10 209 -9 9 -18 12 -20 7z"/>
<path d="M5250 3420 c-13 -8 -12 -10 3 -10 9 0 17 5 17 10 0 12 -1 12 -20 0z"/>
<path d="M5190 3405 c-6 -8 -10 -20 -7 -27 3 -8 6 -6 6 5 1 10 11 22 24 27 15
6 17 9 6 9 -9 1 -22 -6 -29 -14z"/>
<path d="M5281 3384 c0 -11 3 -14 6 -6 3 7 2 16 -1 19 -3 4 -6 -2 -5 -13z"/>
<path d="M5218 3353 c12 -2 30 -2 40 0 9 3 -1 5 -23 4 -22 0 -30 -2 -17 -4z"/>
<path d="M5082 2988 l-2 -148 155 0 155 0 -2 148 -2 147 -3 -142 -4 -143 -144
0 -144 0 -4 143 -3 142 -2 -147z"/>
<path d="M5235 3043 c11 -3 27 -10 35 -17 13 -10 13 -9 1 7 -7 9 -23 16 -35
16 -20 -1 -20 -2 -1 -6z"/>
<path d="M5186 2998 c-3 -13 -5 -34 -5 -48 1 -15 5 -7 10 19 9 47 6 68 -5 29z"/>
<path d="M5218 2923 c12 -2 32 -2 45 0 12 2 2 4 -23 4 -25 0 -35 -2 -22 -4z"/>
<path d="M2147 2764 c-13 -13 -7 -52 8 -58 18 -7 47 21 43 43 -3 17 -39 27
-51 15z"/>
<path d="M5082 2573 l2 -148 3 143 4 142 889 0 889 0 4 -142 3 -143 2 148 2
147 -900 0 -900 0 2 -147z"/>
<path d="M876 1973 c-21 -75 -167 -945 -160 -952 15 -15 48 -21 62 -12 8 5 31
106 58 257 107 595 124 694 124 709 0 23 -77 21 -84 -2z"/>
<path d="M1207 1958 c3 -18 42 -238 87 -488 79 -439 82 -455 104 -458 13 -2
30 -1 39 2 14 6 14 8 0 24 -26 28 -47 88 -47 132 0 22 -9 58 -20 80 l-20 39
26 30 26 31 -56 314 c-31 172 -56 316 -56 320 0 3 -20 6 -44 6 l-45 0 6 -32z"/>
<path d="M7619 1412 c-201 -105 -127 -412 99 -412 131 0 222 91 222 220 0 171
-169 272 -321 192z"/>
<path d="M10305 1026 c-418 -69 -861 -309 -1647 -893 -93 -69 -168 -127 -168
-129 0 -2 790 -4 1755 -4 l1755 0 0 356 c0 335 -1 356 -17 349 -91 -36 -297
-45 -432 -20 -121 23 -271 79 -401 148 -239 127 -315 159 -450 187 -85 18
-303 21 -395 6z"/>
<path d="M5063 720 c-29 -33 -53 -64 -53 -70 0 -5 -6 -10 -14 -10 -7 0 -27
-14 -45 -30 -25 -25 -31 -27 -32 -13 0 10 -5 5 -10 -12 -5 -16 -6 -46 -3 -65
33 -181 249 -251 378 -123 131 129 55 350 -129 376 -39 6 -42 4 -92 -53z"/>
<path d="M5078 763 c7 -3 16 -2 19 1 4 3 -2 6 -13 5 -11 0 -14 -3 -6 -6z"/>
</g>
</svg>
